<svg width="196" height="93" viewBox="0 0 196 93" fill="none" xmlns="http://www.w3.org/2000/svg">
<path d="M49.6485 34.8281C51.1797 34.8281 52.5938 35.1719 53.8906 35.8594C55.1875 36.5469 56.3281 37.5312 57.3125 38.8125V36.9375C57.3125 36.3594 57.4219 35.9531 57.6406 35.7188C57.875 35.4688 58.2578 35.3438 58.7891 35.3438H62.5156C63.0469 35.3438 63.4219 35.4688 63.6406 35.7188C63.875 35.9531 63.9922 36.3594 63.9922 36.9375C63.9922 37.5156 63.875 37.9297 63.6406 38.1797C63.4219 38.4141 63.0469 38.5312 62.5156 38.5312H60.5938V57.7031C60.5938 59.5625 60.1953 61.1562 59.3985 62.4844C58.6172 63.8281 57.4766 64.8516 55.9766 65.5547C54.4766 66.2578 52.6719 66.6094 50.5625 66.6094C49.0625 66.6094 47.5469 66.4766 46.0156 66.2109C44.4844 65.9609 43.0547 65.5938 41.7266 65.1094C41.1172 64.8906 40.8125 64.4766 40.8125 63.8672C40.8125 63.6172 40.875 63.3047 41 62.9297C41.2813 62.0703 41.7266 61.6406 42.336 61.6406C42.5078 61.6406 42.6797 61.6719 42.8516 61.7344C44.0703 62.1719 45.3516 62.5156 46.6953 62.7656C48.0391 63.0156 49.3281 63.1406 50.5625 63.1406C52.7188 63.1406 54.3438 62.625 55.4375 61.5938C56.5313 60.5781 57.0781 59.1797 57.0781 57.3984V52.6875C55.1406 55.125 52.6641 56.3438 49.6485 56.3438C47.711 56.3438 45.9766 55.9141 44.4453 55.0547C42.9141 54.1797 41.711 52.9297 40.836 51.3047C39.961 49.6797 39.5235 47.7734 39.5235 45.5859C39.5235 43.3984 39.961 41.4922 40.836 39.8672C41.711 38.2422 42.9141 37 44.4453 36.1406C45.9766 35.2656 47.711 34.8281 49.6485 34.8281ZM49.8828 38.2969C48.4922 38.2969 47.2969 38.6094 46.2969 39.2344C45.2969 39.8438 44.5313 40.7031 44 41.8125C43.4844 42.9062 43.2266 44.1641 43.2266 45.5859C43.2266 47.0078 43.4844 48.2734 44 49.3828C44.5313 50.4766 45.2969 51.3359 46.2969 51.9609C47.2969 52.5703 48.4922 52.875 49.8828 52.875C51.2735 52.875 52.5078 52.5859 53.586 52.0078C54.6797 51.4297 55.5313 50.5938 56.1406 49.5C56.7656 48.3906 57.0781 47.0859 57.0781 45.5859C57.0781 44.0859 56.7656 42.7891 56.1406 41.6953C55.5313 40.5859 54.6797 39.7422 53.586 39.1641C52.5078 38.5859 51.2735 38.2969 49.8828 38.2969ZM79.8125 34.8281C82.75 34.8281 84.9531 35.4844 86.4219 36.7969C87.8906 38.1094 88.625 40.0547 88.625 42.6328V51.9609C88.625 53.1953 89.1406 53.8125 90.1719 53.8125H90.9922C91.5235 53.8125 91.8985 53.9375 92.1172 54.1875C92.3516 54.4219 92.4688 54.8281 92.4688 55.4062C92.4688 55.9844 92.3516 56.3984 92.1172 56.6484C91.8985 56.8828 91.5235 57 90.9922 57H89.4922C88.4766 57 87.6016 56.75 86.8672 56.25C86.1485 55.7344 85.6797 54.9844 85.461 54C84.1797 55.125 82.7891 55.9922 81.2891 56.6016C79.8047 57.2109 78.2266 57.5156 76.5547 57.5156C74.9766 57.5156 73.5781 57.25 72.3594 56.7188C71.1563 56.1719 70.211 55.3828 69.5235 54.3516C68.836 53.3203 68.4922 52.0938 68.4922 50.6719C68.4922 48.2031 69.375 46.3828 71.1406 45.2109C72.9063 44.0234 75.1875 43.4297 77.9844 43.4297C80.4688 43.4297 82.8438 43.8281 85.1094 44.625V42.6328C85.1094 41.1172 84.6797 40.0078 83.8203 39.3047C82.9766 38.5859 81.6094 38.2266 79.7188 38.2266C78.5469 38.2266 77.3281 38.3906 76.0625 38.7188C74.7969 39.0469 73.5938 39.5 72.4531 40.0781C72.1875 40.2188 71.9453 40.2891 71.7266 40.2891C71.211 40.2891 70.7813 39.9141 70.4375 39.1641C70.2656 38.7891 70.1797 38.4766 70.1797 38.2266C70.1797 37.6797 70.4688 37.2578 71.0469 36.9609C72.3594 36.2734 73.7656 35.75 75.2656 35.3906C76.7813 35.0156 78.2969 34.8281 79.8125 34.8281ZM78.0078 46.7344C76.211 46.7344 74.7891 47.0469 73.7422 47.6719C72.711 48.2812 72.1953 49.2578 72.1953 50.6016C72.1953 51.7422 72.586 52.6328 73.3672 53.2734C74.1641 53.8984 75.2735 54.2109 76.6953 54.2109C79.8047 54.2109 82.6094 52.9219 85.1094 50.3438V47.7891C84.0469 47.4453 82.9063 47.1875 81.6875 47.0156C80.4688 46.8281 79.2422 46.7344 78.0078 46.7344ZM112.859 26.1328C114.953 26.1328 117.031 26.5312 119.094 27.3281C119.844 27.6094 120.219 28.125 120.219 28.875C120.219 29.0469 120.195 29.25 120.148 29.4844C119.93 30.375 119.539 30.8203 118.977 30.8203C118.805 30.8203 118.617 30.7812 118.414 30.7031C116.43 29.9375 114.578 29.5547 112.859 29.5547C109.703 29.5547 108.125 31.25 108.125 34.6406V37.2188H116.234C116.766 37.2188 117.141 37.3438 117.359 37.5938C117.594 37.8281 117.711 38.2344 117.711 38.8125C117.711 39.3906 117.594 39.8047 117.359 40.0547C117.141 40.2891 116.766 40.4062 116.234 40.4062H108.125V53.8125H116.234C116.766 53.8125 117.141 53.9375 117.359 54.1875C117.594 54.4219 117.711 54.8281 117.711 55.4062C117.711 55.9844 117.594 56.3984 117.359 56.6484C117.141 56.8828 116.766 57 116.234 57H99.9688C99.4375 57 99.0547 56.8828 98.8203 56.6484C98.6016 56.3984 98.4922 55.9844 98.4922 55.4062C98.4922 54.8281 98.6016 54.4219 98.8203 54.1875C99.0547 53.9375 99.4375 53.8125 99.9688 53.8125H104.609V40.4062H99.9688C99.4375 40.4062 99.0547 40.2891 98.8203 40.0547C98.6016 39.8047 98.4922 39.3906 98.4922 38.8125C98.4922 38.2344 98.6016 37.8281 98.8203 37.5938C99.0547 37.3438 99.4375 37.2188 99.9688 37.2188H104.609V34.3359C104.609 31.7578 105.328 29.75 106.766 28.3125C108.219 26.8594 110.25 26.1328 112.859 26.1328ZM141.641 26.1328C143.734 26.1328 145.813 26.5312 147.875 27.3281C148.625 27.6094 149 28.125 149 28.875C149 29.0469 148.977 29.25 148.93 29.4844C148.711 30.375 148.32 30.8203 147.758 30.8203C147.586 30.8203 147.398 30.7812 147.195 30.7031C145.211 29.9375 143.359 29.5547 141.641 29.5547C138.484 29.5547 136.906 31.25 136.906 34.6406V37.2188H145.016C145.547 37.2188 145.922 37.3438 146.141 37.5938C146.375 37.8281 146.492 38.2344 146.492 38.8125C146.492 39.3906 146.375 39.8047 146.141 40.0547C145.922 40.2891 145.547 40.4062 145.016 40.4062H136.906V53.8125H145.016C145.547 53.8125 145.922 53.9375 146.141 54.1875C146.375 54.4219 146.492 54.8281 146.492 55.4062C146.492 55.9844 146.375 56.3984 146.141 56.6484C145.922 56.8828 145.547 57 145.016 57H128.75C128.219 57 127.836 56.8828 127.602 56.6484C127.383 56.3984 127.273 55.9844 127.273 55.4062C127.273 54.8281 127.383 54.4219 127.602 54.1875C127.836 53.9375 128.219 53.8125 128.75 53.8125H133.391V40.4062H128.75C128.219 40.4062 127.836 40.2891 127.602 40.0547C127.383 39.8047 127.273 39.3906 127.273 38.8125C127.273 38.2344 127.383 37.8281 127.602 37.5938C127.836 37.3438 128.219 37.2188 128.75 37.2188H133.391V34.3359C133.391 31.7578 134.109 29.75 135.547 28.3125C137 26.8594 139.031 26.1328 141.641 26.1328ZM166.156 34.8281C169.094 34.8281 171.297 35.4844 172.766 36.7969C174.234 38.1094 174.969 40.0547 174.969 42.6328V51.9609C174.969 53.1953 175.484 53.8125 176.516 53.8125H177.336C177.867 53.8125 178.242 53.9375 178.461 54.1875C178.695 54.4219 178.813 54.8281 178.813 55.4062C178.813 55.9844 178.695 56.3984 178.461 56.6484C178.242 56.8828 177.867 57 177.336 57H175.836C174.82 57 173.945 56.75 173.211 56.25C172.492 55.7344 172.023 54.9844 171.805 54C170.523 55.125 169.133 55.9922 167.633 56.6016C166.148 57.2109 164.57 57.5156 162.898 57.5156C161.32 57.5156 159.922 57.25 158.703 56.7188C157.5 56.1719 156.555 55.3828 155.867 54.3516C155.18 53.3203 154.836 52.0938 154.836 50.6719C154.836 48.2031 155.719 46.3828 157.484 45.2109C159.25 44.0234 161.531 43.4297 164.328 43.4297C166.813 43.4297 169.188 43.8281 171.453 44.625V42.6328C171.453 41.1172 171.023 40.0078 170.164 39.3047C169.32 38.5859 167.953 38.2266 166.063 38.2266C164.891 38.2266 163.672 38.3906 162.406 38.7188C161.141 39.0469 159.938 39.5 158.797 40.0781C158.531 40.2188 158.289 40.2891 158.07 40.2891C157.555 40.2891 157.125 39.9141 156.781 39.1641C156.609 38.7891 156.523 38.4766 156.523 38.2266C156.523 37.6797 156.813 37.2578 157.391 36.9609C158.703 36.2734 160.109 35.75 161.609 35.3906C163.125 35.0156 164.641 34.8281 166.156 34.8281ZM164.352 46.7344C162.555 46.7344 161.133 47.0469 160.086 47.6719C159.055 48.2812 158.539 49.2578 158.539 50.6016C158.539 51.7422 158.93 52.6328 159.711 53.2734C160.508 53.8984 161.617 54.2109 163.039 54.2109C166.148 54.2109 168.953 52.9219 171.453 50.3438V47.7891C170.391 47.4453 169.25 47.1875 168.031 47.0156C166.813 46.8281 165.586 46.7344 164.352 46.7344Z" fill="white"/>
<path d="M8.01978 35.4138C7.87781 34.6861 8.0269 33.97 8.43984 33.3969C8.85236 32.8238 9.47888 32.4631 10.2042 32.381C10.9183 32.2996 11.6386 32.4998 12.235 32.9438L24.3781 41.9848L24.3182 38.7847C24.3048 38.0698 24.5724 37.4077 25.0712 36.921C25.588 36.4169 26.2811 36.1644 27.0287 36.2104C28.5187 36.302 29.7534 37.5806 29.781 39.0602L29.9975 50.6499C30.0436 52.7204 29.4514 54.6709 28.2846 56.2902C26.498 58.7703 23.6657 60.0634 20.7056 60.063C18.5166 60.063 16.2576 59.3562 14.3009 57.8992L9.2188 54.1153C7.97413 53.1879 7.65082 51.4763 8.49847 50.2999C8.91099 49.7272 9.53751 49.3661 10.2629 49.284C10.2675 49.2835 10.2725 49.2835 10.2771 49.2831L10.1435 49.1835C9.54756 48.7398 9.14216 48.1011 9.00312 47.3854C8.86115 46.6578 9.01024 45.9412 9.42318 45.3685C9.8357 44.7958 10.4622 44.4348 11.1876 44.3522C11.3182 44.3373 11.4489 44.3347 11.5792 44.3385C11.4129 44.0562 11.2923 43.748 11.2286 43.4227C11.0871 42.695 11.2362 41.9789 11.6487 41.4058C12.0784 40.8093 12.7279 40.4639 13.4261 40.3882L9.16059 37.2123C8.56422 36.7682 8.15882 36.1295 8.01978 35.4138ZM9.59991 36.6017L15.4434 40.9523L18.8617 43.4976C19.0275 43.6211 19.0635 43.8578 18.9421 44.0264C18.821 44.1955 18.5882 44.2321 18.4219 44.1082L15.0037 41.5629C14.0894 40.8821 12.8536 41.0128 12.2484 41.8524C11.9607 42.2522 11.8572 42.7576 11.9582 43.2754C12.0612 43.8046 12.3636 44.2785 12.8087 44.6102L16.227 47.1555C16.3928 47.279 16.4288 47.5157 16.3074 47.6843C16.2735 47.7316 16.2295 47.7656 16.1822 47.7916C16.1679 47.7993 16.1529 47.8022 16.1378 47.8078C16.1026 47.8214 16.0674 47.8312 16.0297 47.8333C16.0218 47.8338 16.0147 47.8389 16.0067 47.8389C15.9887 47.8389 15.9707 47.8329 15.9531 47.8304C15.9384 47.8282 15.9242 47.8274 15.91 47.8235C15.8672 47.8116 15.8254 47.7942 15.7877 47.7656L12.7782 45.5252C12.3334 45.1939 11.7978 45.0419 11.2697 45.1041C10.7541 45.1624 10.3115 45.4149 10.0233 45.8151C9.73518 46.2154 9.63174 46.7203 9.73267 47.2377C9.83569 47.7669 10.1381 48.2408 10.5833 48.5725L13.5341 50.7695C13.7 50.893 13.736 51.1297 13.6145 51.2983C13.5416 51.3997 13.429 51.4533 13.3138 51.4533C13.2376 51.4533 13.1605 51.4295 13.0944 51.3801L11.8547 50.457L11.8539 50.4566C11.4091 50.1253 10.8735 49.9759 10.3454 50.0355C9.82941 50.0938 9.38716 50.3467 9.09903 50.7465C8.49386 51.5866 8.74514 52.8235 9.65896 53.5043L14.7411 57.2882C19.0128 60.4683 24.8195 59.8203 27.6845 55.8427C28.7533 54.3588 29.2956 52.5688 29.2537 50.6648L29.0368 39.0742C29.0163 37.98 28.0953 37.0339 26.9838 36.9653C26.4448 36.9325 25.9519 37.1109 25.5867 37.4669C25.2395 37.8054 25.0532 38.2682 25.0628 38.7698L25.1369 42.7342C25.1394 42.8781 25.062 43.011 24.9363 43.0774C24.8107 43.1434 24.6595 43.1315 24.5448 43.0467L11.7953 33.5544C11.3505 33.2232 10.8153 33.0724 10.2867 33.1333C9.7712 33.1916 9.32853 33.4441 9.0404 33.8444C8.75226 34.2442 8.64882 34.7496 8.74975 35.2669C8.85277 35.7961 9.15473 36.27 9.59991 36.6017Z" fill="white" stroke="white"/>
<path d="M14.0056 30.6426C14.1233 30.6426 14.2388 30.5864 14.3113 30.4808L16.7039 26.9945C16.8216 26.823 16.7801 26.5875 16.6118 26.4674C16.4421 26.3478 16.211 26.3899 16.0933 26.5611L13.7007 30.0474C13.5834 30.219 13.6245 30.4544 13.7928 30.5745C13.8577 30.6209 13.9319 30.6426 14.0056 30.6426Z" fill="white" stroke="white"/>
<path d="M4.82192 43.11C4.9396 43.11 5.05519 43.0538 5.12764 42.9482L7.52024 39.4619C7.6375 39.2903 7.59646 39.0549 7.4281 38.9348C7.25849 38.8147 7.02731 38.8573 6.90963 39.0285L4.51703 42.5148C4.39977 42.6864 4.44081 42.9218 4.60917 43.0419C4.67408 43.0883 4.74863 43.11 4.82192 43.11Z" fill="white" stroke="white"/>
<path d="M5.53812 31.455C5.6558 31.455 5.77139 31.3988 5.84385 31.2932C5.96111 31.1216 5.92007 30.8862 5.75171 30.7661L2.32258 28.3336C2.15339 28.2135 1.92179 28.2561 1.80411 28.4273C1.68685 28.5989 1.72789 28.8343 1.89625 28.9544L5.32537 31.3869C5.39029 31.4329 5.46441 31.455 5.53812 31.455Z" fill="white" stroke="white"/>
<path d="M1.37185 36.6246C1.39321 36.6246 1.41541 36.6229 1.43718 36.6187L5.55398 35.8736C5.75626 35.837 5.89111 35.6407 5.8551 35.4346C5.81908 35.2289 5.62517 35.0897 5.42373 35.1285L1.30694 35.8736C1.10466 35.9102 0.969804 36.1065 1.00582 36.3125C1.03765 36.4956 1.1947 36.6246 1.37185 36.6246Z" fill="white" stroke="white"/>
<path d="M9.87629 29.9431C9.89765 29.9431 9.91984 29.9414 9.94204 29.9371C10.1443 29.9005 10.2792 29.7042 10.2432 29.4981L9.50984 25.3127C9.47424 25.1071 9.28452 24.9674 9.07806 25.0066C8.87578 25.0432 8.74092 25.2399 8.77694 25.4456L9.51026 29.631C9.54209 29.8141 9.69914 29.9431 9.87629 29.9431Z" fill="white" stroke="white"/>
</svg>
